<svg width="20" height="21" viewBox="0 0 20 21" fill="none" xmlns="http://www.w3.org/2000/svg">
<path opacity="0.2" d="M17.5 10.5C17.5 11.9834 17.0601 13.4334 16.236 14.6668C15.4119 15.9001 14.2406 16.8614 12.8701 17.4291C11.4997 17.9968 9.99168 18.1453 8.53683 17.8559C7.08197 17.5665 5.7456 16.8522 4.6967 15.8033C3.64781 14.7544 2.9335 13.418 2.64411 11.9632C2.35472 10.5083 2.50325 9.00032 3.07091 7.62987C3.63856 6.25943 4.59986 5.08809 5.83323 4.26398C7.0666 3.43987 8.51664 3 10 3C11.9891 3 13.8968 3.79018 15.3033 5.1967C16.7098 6.60322 17.5 8.51088 17.5 10.5Z" fill="#09C97F"/>
<path d="M13.5672 8.18281C13.6253 8.24086 13.6714 8.30979 13.7029 8.38566C13.7343 8.46154 13.7505 8.54287 13.7505 8.625C13.7505 8.70713 13.7343 8.78846 13.7029 8.86434C13.6714 8.94021 13.6253 9.00914 13.5672 9.06719L9.19219 13.4422C9.13415 13.5003 9.06522 13.5464 8.98934 13.5779C8.91347 13.6093 8.83214 13.6255 8.75 13.6255C8.66787 13.6255 8.58654 13.6093 8.51067 13.5779C8.43479 13.5464 8.36586 13.5003 8.30782 13.4422L6.43282 11.5672C6.31554 11.4499 6.24966 11.2909 6.24966 11.125C6.24966 10.9591 6.31554 10.8001 6.43282 10.6828C6.55009 10.5655 6.70915 10.4997 6.875 10.4997C7.04086 10.4997 7.19992 10.5655 7.31719 10.6828L8.75 12.1164L12.6828 8.18281C12.7409 8.1247 12.8098 8.0786 12.8857 8.04715C12.9615 8.0157 13.0429 7.99951 13.125 7.99951C13.2071 7.99951 13.2885 8.0157 13.3643 8.04715C13.4402 8.0786 13.5091 8.1247 13.5672 8.18281ZM18.125 10.5C18.125 12.107 17.6485 13.6779 16.7557 15.014C15.8629 16.3502 14.594 17.3916 13.1093 18.0065C11.6247 18.6215 9.99099 18.7824 8.4149 18.4689C6.8388 18.1554 5.39106 17.3815 4.25476 16.2452C3.11846 15.1089 2.34463 13.6612 2.03112 12.0851C1.71762 10.509 1.87852 8.87535 2.49348 7.3907C3.10844 5.90605 4.14985 4.6371 5.486 3.74431C6.82214 2.85152 8.39303 2.375 10 2.375C12.1542 2.37727 14.2195 3.23403 15.7427 4.75727C17.266 6.28051 18.1227 8.34581 18.125 10.5ZM16.875 10.5C16.875 9.14025 16.4718 7.81104 15.7164 6.68045C14.9609 5.54987 13.8872 4.66868 12.631 4.14833C11.3747 3.62798 9.99238 3.49183 8.65876 3.7571C7.32514 4.02237 6.10013 4.67716 5.13864 5.63864C4.17716 6.60013 3.52238 7.82513 3.2571 9.15875C2.99183 10.4924 3.12798 11.8747 3.64833 13.1309C4.16868 14.3872 5.04987 15.4609 6.18046 16.2164C7.31105 16.9718 8.64026 17.375 10 17.375C11.8227 17.3729 13.5702 16.6479 14.8591 15.3591C16.1479 14.0702 16.8729 12.3227 16.875 10.5Z" fill="#09C97F"/>
</svg>
