<svg width="49" height="32" viewBox="0 0 49 32" fill="none" xmlns="http://www.w3.org/2000/svg">
<g clip-path="url(#clip0_4936_18580)">
<path d="M14.297 13.5732V21.4094H11.8026V11.5597L16.9524 11.5648C19.1398 11.5648 19.8849 13.1073 19.8849 14.5084V21.4094H17.3949V14.5213C17.3949 13.9344 17.0911 13.5732 16.3583 13.5732L14.297 13.5732ZM31.2591 13.4556C30.4065 13.4556 29.7466 13.8939 29.471 14.4889C29.3077 14.8461 29.2515 15.1199 29.2323 15.5573H33.07C33.0207 14.4889 32.5362 13.4556 31.2591 13.4556ZM29.2323 17.2551C29.2323 18.531 30.0255 19.47 31.4416 19.47C32.5434 19.47 33.091 19.1647 33.728 18.531L35.2687 20.002C34.2822 20.9759 33.2471 21.5673 31.4233 21.5673C29.0354 21.5673 26.7502 20.2653 26.7502 16.4706C26.7502 13.2283 28.7454 11.3928 31.3671 11.3928C34.0246 11.3928 35.5599 13.5417 35.5599 16.3565V17.2551H29.2323ZM24.6445 21.3971C22.6123 21.3971 21.7501 19.9825 21.7501 18.5853V8.8761H24.2407V11.5597H26.1182V13.5732H24.2407V18.4292C24.2407 19.0014 24.5109 19.319 25.105 19.319H26.1182V21.3971H24.6445ZM9.58308 10.1985H7.0715V7.81275H9.58308V10.1985ZM9.5894 21.513C7.70856 21.3322 7.06881 20.1914 7.06881 18.875L7.07153 11.5597H9.58942L9.5894 21.513ZM39.524 21.3025C37.647 21.1215 37.0103 19.9825 37.0103 18.6679V7.4732H39.524V21.3025ZM48.3115 9.09105C46.0335 -2.01534 24.4743 -2.71843 10.578 5.74127V6.67524C24.4602 -0.45903 44.1484 -0.417001 45.9422 9.81246C46.5423 13.195 44.6363 16.7216 41.2322 18.7486V21.4007C45.3295 19.9017 49.5316 15.041 48.3115 9.09105ZM23.0513 28.5229C13.4606 29.4095 3.46655 28.0174 2.06816 20.5232C1.38367 16.8287 3.06667 12.9125 5.29935 10.4798V9.17902C1.2801 12.7035 -0.901251 17.1656 0.354541 22.4379C1.95738 29.1987 10.5348 33.0301 23.6268 31.7577C28.8066 31.2522 35.5864 29.5866 40.2997 26.9997V23.3245C36.0229 25.8712 28.9456 27.9772 23.0513 28.5229Z" fill="#111C2D" fill-opacity="0.6"/>
<path d="M42.4297 8.21599C42.4297 8.09411 42.3586 8.05538 42.1959 8.05538H42.0389V8.40032C42.0617 8.40032 42.1758 8.40452 42.1959 8.40452C42.3586 8.40452 42.4297 8.35019 42.4297 8.2361V8.21599ZM42.6747 9.0713H42.4886C42.4718 9.0713 42.4571 9.06078 42.4499 9.04668L42.1959 8.61618C42.1914 8.60748 42.1694 8.59696 42.1607 8.59696H42.0467V9.02387C42.0467 9.04668 42.031 9.0713 42.001 9.0713H41.8326C41.8116 9.0713 41.7906 9.04668 41.7906 9.02387V7.944C41.7906 7.88156 41.8149 7.85544 41.8677 7.84733C41.9272 7.83953 42.0887 7.83412 42.1758 7.83412C42.485 7.83412 42.672 7.92539 42.672 8.216V8.2361C42.672 8.41593 42.5825 8.51079 42.4438 8.55733L42.7071 9.00254C42.7088 9.01155 42.7149 9.02387 42.7149 9.03436C42.7149 9.05178 42.7044 9.0713 42.6747 9.0713ZM42.2328 7.63927C41.7747 7.63927 41.4042 8.01754 41.4042 8.47297C41.4042 8.92899 41.7747 9.30125 42.2328 9.30125C42.6885 9.30125 43.0626 8.92899 43.0626 8.47297C43.0626 8.01754 42.6885 7.63927 42.2328 7.63927ZM42.2328 9.47298C41.6762 9.47298 41.2322 9.02386 41.2322 8.47297C41.2322 7.92298 41.6762 7.47266 42.2328 7.47266C42.7834 7.47266 43.2358 7.92298 43.2358 8.47297C43.2358 9.02386 42.7834 9.47298 42.2328 9.47298Z" fill="#111C2D" fill-opacity="0.6"/>
</g>
<defs>
<clipPath id="clip0_4936_18580">
<rect width="48.526" height="32" fill="white"/>
</clipPath>
</defs>
</svg>
