<svg width="28" height="28" viewBox="0 0 28 28" fill="none" xmlns="http://www.w3.org/2000/svg">
<path d="M6.64996 21L9.33329 16.3333C8.04996 16.3333 6.95135 15.8764 6.03746 14.9625C5.12357 14.0486 4.66663 12.95 4.66663 11.6667C4.66663 10.3833 5.12357 9.28472 6.03746 8.37083C6.95135 7.45694 8.04996 7 9.33329 7C10.6166 7 11.7152 7.45694 12.6291 8.37083C13.543 9.28472 14 10.3833 14 11.6667C14 12.1139 13.9467 12.5273 13.8401 12.9068C13.7336 13.2864 13.573 13.6508 13.3583 14L9.33329 21H6.64996ZM17.15 21L19.8333 16.3333C18.55 16.3333 17.4513 15.8764 16.5375 14.9625C15.6236 14.0486 15.1666 12.95 15.1666 11.6667C15.1666 10.3833 15.6236 9.28472 16.5375 8.37083C17.4513 7.45694 18.55 7 19.8333 7C21.1166 7 22.2152 7.45694 23.1291 8.37083C24.043 9.28472 24.5 10.3833 24.5 11.6667C24.5 12.1139 24.4467 12.5273 24.3401 12.9068C24.2336 13.2864 24.073 13.6508 23.8583 14L19.8333 21H17.15Z" fill="white"/>
</svg>
