<svg width="37" height="36" viewBox="0 0 37 36" fill="none" xmlns="http://www.w3.org/2000/svg">
<g clip-path="url(#clip0_4936_18586)">
<path d="M18.1472 2.05519C13.7449 2.05519 9.75818 3.84083 6.8717 6.7295C3.98413 9.61158 2.19959 13.6005 2.19959 18.005C2.19959 22.4062 3.98413 26.3924 6.8717 29.2756C9.75818 32.1604 13.7449 33.9493 18.1472 33.9493C22.5506 33.9493 26.5395 32.1604 29.4216 29.2756C32.3081 26.3924 34.0888 22.4062 34.0888 18.005C34.0888 13.6005 32.3081 9.61158 29.4216 6.7295C26.5395 3.84083 22.5506 2.05519 18.1472 2.05519ZM18.1472 0.12281C28.0207 0.12281 36.0261 8.12932 36.0261 18.005C36.0261 27.8774 28.0207 35.8828 18.1472 35.8828C8.27482 35.8828 0.266113 27.8774 0.266113 18.005C0.266113 8.12932 8.27482 0.12281 18.1472 0.12281Z" fill="#111C2D" fill-opacity="0.6"/>
<path d="M9.69082 17.8566C9.69082 16.8145 8.99943 16.2226 8.0206 16.2226H7.42154V19.4916H8.00356C8.91369 19.4916 9.69082 18.997 9.69082 17.8566ZM20.3469 19.0327L15.9337 22.5078L11.9002 19.3322C11.3182 20.7304 9.91176 21.7016 8.2921 21.7016H4.84009V14.0116H8.2921C10.1019 14.0116 11.4061 15.1625 11.8991 16.3886L15.9337 13.2163L17.428 14.3925L13.7304 17.2987L14.441 17.8549L18.1376 14.9503L19.6341 16.1232L15.937 19.0327L16.6465 19.59L20.3469 16.6799V14.0116H23.0295V19.457H25.7055V21.7109H20.3469V19.0327ZM29.1036 19.4581H31.7785V21.7109H26.4183V14.0116H29.1036V19.4581Z" fill="#111C2D" fill-opacity="0.6"/>
</g>
<defs>
<clipPath id="clip0_4936_18586">
<rect width="36" height="36" fill="white" transform="translate(0.145996)"/>
</clipPath>
</defs>
</svg>
