<svg width="140" height="18" viewBox="0 0 140 18" fill="none" xmlns="http://www.w3.org/2000/svg">
<g clip-path="url(#clip0_4936_18584)">
<path d="M60.29 11.7108H69.434L64.604 3.91076L55.724 17.9988H51.686L62.486 1.09676C62.7214 0.759486 63.0342 0.483545 63.3983 0.292053C63.7623 0.100562 64.1669 -0.000902657 64.5782 -0.00384058C64.9895 -0.0067785 65.3955 0.0888959 65.7623 0.275168C66.129 0.461439 66.4457 0.732883 66.686 1.06676L77.516 17.9988H73.478L71.576 14.8488H62.324L60.308 11.7108M102.266 14.8488V0.16676H98.834V16.2948C98.8333 16.5189 98.8782 16.7408 98.9659 16.9471C99.0535 17.1533 99.1822 17.3397 99.344 17.4948C99.5064 17.661 99.7006 17.7928 99.915 17.8825C100.129 17.9722 100.36 18.0178 100.592 18.0168H116.192L118.226 14.8668H102.248M45.524 12.2268C47.1232 12.2268 48.657 11.5915 49.7878 10.4606C50.9187 9.32977 51.554 7.79601 51.554 6.19676C51.554 4.5975 50.9187 3.06375 49.7878 1.93291C48.657 0.802061 47.1232 0.16676 45.524 0.16676H30.524V17.9988H33.95V3.32276H45.314C46.0794 3.32276 46.8134 3.62682 47.3547 4.16805C47.8959 4.70928 48.2 5.44334 48.2 6.20876C48.2 6.97417 47.8959 7.70824 47.3547 8.24947C46.8134 8.7907 46.0794 9.09476 45.314 9.09476H35.648L45.884 17.9988H50.858L43.982 12.2268H45.524ZM9.45196 17.9988H19.814C22.1378 17.9385 24.3462 16.973 25.9685 15.308C27.5908 13.6431 28.4987 11.4104 28.4987 9.08576C28.4987 6.76114 27.5908 4.52844 25.9685 2.8635C24.3462 1.19856 22.1378 0.233058 19.814 0.17276H9.45196C8.26203 0.141884 7.07796 0.349589 5.96959 0.783628C4.86121 1.21767 3.85097 1.86925 2.99843 2.69995C2.14589 3.53065 1.46832 4.52366 1.00568 5.6204C0.543037 6.71715 0.304687 7.89543 0.304688 9.08576C0.304687 10.2761 0.543037 11.4544 1.00568 12.5511C1.46832 13.6479 2.14589 14.6409 2.99843 15.4716C3.85097 16.3023 4.86121 16.9539 5.96959 17.3879C7.07796 17.8219 8.26203 18.0296 9.45196 17.9988ZM19.58 14.8608H9.67996C8.18213 14.8124 6.76181 14.1835 5.71935 13.1069C4.67689 12.0302 4.09403 10.5904 4.09403 9.09176C4.09403 7.59315 4.67689 6.15329 5.71935 5.07666C6.76181 4.00004 8.18213 3.37107 9.67996 3.32276H19.58C20.3532 3.29782 21.1236 3.42858 21.8453 3.70728C22.567 3.98597 23.2253 4.40691 23.7811 4.94507C24.3369 5.48324 24.7789 6.12765 25.0807 6.84C25.3825 7.55235 25.538 8.31811 25.538 9.09176C25.538 9.86541 25.3825 10.6312 25.0807 11.3435C24.7789 12.0559 24.3369 12.7003 23.7811 13.2384C23.2253 13.7766 22.567 14.1975 21.8453 14.4762C21.1236 14.7549 20.3532 14.8857 19.58 14.8608ZM84.674 17.9988H95.252L97.256 14.8608H84.908C84.1347 14.8857 83.3643 14.7549 82.6426 14.4762C81.9209 14.1975 81.2626 13.7766 80.7068 13.2384C80.151 12.7003 79.709 12.0559 79.4072 11.3435C79.1054 10.6312 78.9499 9.86541 78.9499 9.09176C78.9499 8.31811 79.1054 7.55235 79.4072 6.84C79.709 6.12765 80.151 5.48324 80.7068 4.94507C81.2626 4.40691 81.9209 3.98597 82.6426 3.70728C83.3643 3.42858 84.1347 3.29782 84.908 3.32276H94.958L96.986 0.17276H84.674C83.484 0.141884 82.3 0.349589 81.1916 0.783628C80.0832 1.21767 79.073 1.86925 78.2204 2.69995C77.3679 3.53065 76.6903 4.52366 76.2277 5.6204C75.765 6.71715 75.5267 7.89543 75.5267 9.08576C75.5267 10.2761 75.765 11.4544 76.2277 12.5511C76.6903 13.6479 77.3679 14.6409 78.2204 15.4716C79.073 16.3023 80.0832 16.9539 81.1916 17.3879C82.3 17.8219 83.484 18.0296 84.674 17.9988ZM126.596 14.8608C125.339 14.8612 124.116 14.4513 123.113 13.6932C122.11 12.9351 121.382 11.8704 121.04 10.6608H135.692L137.708 7.51676H121.04C121.381 6.30665 122.109 5.24133 123.112 4.4831C124.115 3.72487 125.339 3.31529 126.596 3.31676H136.652L138.662 0.16676H126.362C124.038 0.227058 121.83 1.19256 120.207 2.8575C118.585 4.52244 117.677 6.75514 117.677 9.07976C117.677 11.4044 118.585 13.6371 120.207 15.302C121.83 16.967 124.038 17.9325 126.362 17.9928H136.94L138.95 14.8548H126.59" fill="#111C2D" fill-opacity="0.6"/>
</g>
<defs>
<clipPath id="clip0_4936_18584">
<rect width="138.6" height="18" fill="white" transform="translate(0.535889)"/>
</clipPath>
</defs>
</svg>
